<?xml version="1.0" encoding="utf-8" standalone="no"?>
<!DOCTYPE svg PUBLIC "-//W3C//DTD SVG 1.1//EN"
  "http://www.w3.org/Graphics/SVG/1.1/DTD/svg11.dtd">
<!-- Created with matplotlib (https://matplotlib.org/) -->
<svg height="432pt" version="1.1" viewBox="0 0 432 432" width="432pt" xmlns="http://www.w3.org/2000/svg" xmlns:xlink="http://www.w3.org/1999/xlink">
 <defs>
  <style type="text/css">
*{stroke-linecap:butt;stroke-linejoin:round;}
  </style>
 </defs>
 <g id="figure_1">
  <g id="patch_1">
   <path d="M 0 432 
L 432 432 
L 432 0 
L 0 0 
z
" style="fill:#ffffff;"/>
  </g>
  <g id="axes_1">
   <g id="patch_2">
    <path d="M 16.8 351.7 
L 412.825 351.7 
L 412.825 10.8 
L 16.8 10.8 
z
" style="fill:#ffffff;"/>
   </g>
   <g id="matplotlib.axis_1">
    <g id="xtick_1">
     <g id="line2d_1">
      <path clip-path="url(#p4b67ef0f74)" d="M 16.8 351.7 
L 16.8 10.8 
" style="fill:none;stroke:#cccccc;stroke-linecap:round;stroke-opacity:0.6;stroke-width:0.8;"/>
     </g>
     <g id="line2d_2">
      <defs>
       <path d="M 0 0 
L 0 6 
" id="mb6237b687d" style="stroke:#262626;stroke-width:0.8;"/>
      </defs>
      <g>
       <use style="fill:#262626;stroke:#262626;stroke-width:0.8;" x="16.8" xlink:href="#mb6237b687d" y="351.7"/>
      </g>
     </g>
     <g id="text_1">
      <!-- 2 -->
      <defs>
       <path d="M 50.34375 8.453125 
L 50.34375 0 
L 3.03125 0 
Q 2.9375 3.171875 4.046875 6.109375 
Q 5.859375 10.9375 9.828125 15.625 
Q 13.8125 20.3125 21.34375 26.46875 
Q 33.015625 36.03125 37.109375 41.625 
Q 41.21875 47.21875 41.21875 52.203125 
Q 41.21875 57.421875 37.46875 61 
Q 33.734375 64.59375 27.734375 64.59375 
Q 21.390625 64.59375 17.578125 60.78125 
Q 13.765625 56.984375 13.71875 50.25 
L 4.6875 51.171875 
Q 5.609375 61.28125 11.65625 66.578125 
Q 17.71875 71.875 27.9375 71.875 
Q 38.234375 71.875 44.234375 66.15625 
Q 50.25 60.453125 50.25 52 
Q 50.25 47.703125 48.484375 43.546875 
Q 46.734375 39.40625 42.65625 34.8125 
Q 38.578125 30.21875 29.109375 22.21875 
Q 21.1875 15.578125 18.9375 13.203125 
Q 16.703125 10.84375 15.234375 8.453125 
z
" id="ArialMT-50"/>
      </defs>
      <g style="fill:#262626;" transform="translate(12.629297 371.936719)scale(0.15 -0.15)">
       <use xlink:href="#ArialMT-50"/>
      </g>
     </g>
    </g>
    <g id="xtick_2">
     <g id="line2d_3">
      <path clip-path="url(#p4b67ef0f74)" d="M 41.551563 351.7 
L 41.551563 10.8 
" style="fill:none;stroke:#cccccc;stroke-linecap:round;stroke-opacity:0.6;stroke-width:0.8;"/>
     </g>
     <g id="line2d_4">
      <g>
       <use style="fill:#262626;stroke:#262626;stroke-width:0.8;" x="41.551563" xlink:href="#mb6237b687d" y="351.7"/>
      </g>
     </g>
    </g>
    <g id="xtick_3">
     <g id="line2d_5">
      <path clip-path="url(#p4b67ef0f74)" d="M 66.303125 351.7 
L 66.303125 10.8 
" style="fill:none;stroke:#cccccc;stroke-linecap:round;stroke-opacity:0.6;stroke-width:0.8;"/>
     </g>
     <g id="line2d_6">
      <g>
       <use style="fill:#262626;stroke:#262626;stroke-width:0.8;" x="66.303125" xlink:href="#mb6237b687d" y="351.7"/>
      </g>
     </g>
     <g id="text_2">
      <!-- 3 -->
      <defs>
       <path d="M 4.203125 18.890625 
L 12.984375 20.0625 
Q 14.5 12.59375 18.140625 9.296875 
Q 21.78125 6 27 6 
Q 33.203125 6 37.46875 10.296875 
Q 41.75 14.59375 41.75 20.953125 
Q 41.75 27 37.796875 30.921875 
Q 33.84375 34.859375 27.734375 34.859375 
Q 25.25 34.859375 21.53125 33.890625 
L 22.515625 41.609375 
Q 23.390625 41.5 23.921875 41.5 
Q 29.546875 41.5 34.03125 44.421875 
Q 38.53125 47.359375 38.53125 53.46875 
Q 38.53125 58.296875 35.25 61.46875 
Q 31.984375 64.65625 26.8125 64.65625 
Q 21.6875 64.65625 18.265625 61.421875 
Q 14.84375 58.203125 13.875 51.765625 
L 5.078125 53.328125 
Q 6.6875 62.15625 12.390625 67.015625 
Q 18.109375 71.875 26.609375 71.875 
Q 32.46875 71.875 37.390625 69.359375 
Q 42.328125 66.84375 44.9375 62.5 
Q 47.5625 58.15625 47.5625 53.265625 
Q 47.5625 48.640625 45.0625 44.828125 
Q 42.578125 41.015625 37.703125 38.765625 
Q 44.046875 37.3125 47.5625 32.6875 
Q 51.078125 28.078125 51.078125 21.140625 
Q 51.078125 11.765625 44.234375 5.25 
Q 37.40625 -1.265625 26.953125 -1.265625 
Q 17.53125 -1.265625 11.296875 4.34375 
Q 5.078125 9.96875 4.203125 18.890625 
z
" id="ArialMT-51"/>
      </defs>
      <g style="fill:#262626;" transform="translate(62.132422 371.936719)scale(0.15 -0.15)">
       <use xlink:href="#ArialMT-51"/>
      </g>
     </g>
    </g>
    <g id="xtick_4">
     <g id="line2d_7">
      <path clip-path="url(#p4b67ef0f74)" d="M 91.054688 351.7 
L 91.054688 10.8 
" style="fill:none;stroke:#cccccc;stroke-linecap:round;stroke-opacity:0.6;stroke-width:0.8;"/>
     </g>
     <g id="line2d_8">
      <g>
       <use style="fill:#262626;stroke:#262626;stroke-width:0.8;" x="91.054688" xlink:href="#mb6237b687d" y="351.7"/>
      </g>
     </g>
    </g>
    <g id="xtick_5">
     <g id="line2d_9">
      <path clip-path="url(#p4b67ef0f74)" d="M 115.80625 351.7 
L 115.80625 10.8 
" style="fill:none;stroke:#cccccc;stroke-linecap:round;stroke-opacity:0.6;stroke-width:0.8;"/>
     </g>
     <g id="line2d_10">
      <g>
       <use style="fill:#262626;stroke:#262626;stroke-width:0.8;" x="115.80625" xlink:href="#mb6237b687d" y="351.7"/>
      </g>
     </g>
     <g id="text_3">
      <!-- 4 -->
      <defs>
       <path d="M 32.328125 0 
L 32.328125 17.140625 
L 1.265625 17.140625 
L 1.265625 25.203125 
L 33.9375 71.578125 
L 41.109375 71.578125 
L 41.109375 25.203125 
L 50.78125 25.203125 
L 50.78125 17.140625 
L 41.109375 17.140625 
L 41.109375 0 
z
M 32.328125 25.203125 
L 32.328125 57.46875 
L 9.90625 25.203125 
z
" id="ArialMT-52"/>
      </defs>
      <g style="fill:#262626;" transform="translate(110.245313 375.515625)scale(0.2 -0.2)">
       <use xlink:href="#ArialMT-52"/>
      </g>
     </g>
    </g>
    <g id="xtick_6">
     <g id="line2d_11">
      <path clip-path="url(#p4b67ef0f74)" d="M 140.557813 351.7 
L 140.557813 10.8 
" style="fill:none;stroke:#cccccc;stroke-linecap:round;stroke-opacity:0.6;stroke-width:0.8;"/>
     </g>
     <g id="line2d_12">
      <g>
       <use style="fill:#262626;stroke:#262626;stroke-width:0.8;" x="140.557813" xlink:href="#mb6237b687d" y="351.7"/>
      </g>
     </g>
    </g>
    <g id="xtick_7">
     <g id="line2d_13">
      <path clip-path="url(#p4b67ef0f74)" d="M 165.309375 351.7 
L 165.309375 10.8 
" style="fill:none;stroke:#cccccc;stroke-linecap:round;stroke-opacity:0.6;stroke-width:0.8;"/>
     </g>
     <g id="line2d_14">
      <g>
       <use style="fill:#262626;stroke:#262626;stroke-width:0.8;" x="165.309375" xlink:href="#mb6237b687d" y="351.7"/>
      </g>
     </g>
     <g id="text_4">
      <!-- 5 -->
      <defs>
       <path d="M 4.4375 18.40625 
L 18.109375 19.828125 
Q 18.703125 15.1875 21.578125 12.46875 
Q 24.46875 9.765625 28.21875 9.765625 
Q 32.515625 9.765625 35.5 13.25 
Q 38.484375 16.75 38.484375 23.78125 
Q 38.484375 30.375 35.515625 33.671875 
Q 32.5625 36.96875 27.828125 36.96875 
Q 21.921875 36.96875 17.234375 31.734375 
L 6.109375 33.34375 
L 13.140625 70.609375 
L 49.421875 70.609375 
L 49.421875 57.765625 
L 23.53125 57.765625 
L 21.390625 45.609375 
Q 25.984375 47.90625 30.765625 47.90625 
Q 39.890625 47.90625 46.234375 41.265625 
Q 52.59375 34.625 52.59375 24.03125 
Q 52.59375 15.1875 47.46875 8.25 
Q 40.484375 -1.21875 28.078125 -1.21875 
Q 18.171875 -1.21875 11.921875 4.09375 
Q 5.671875 9.421875 4.4375 18.40625 
z
" id="Arial-BoldMT-53"/>
      </defs>
      <g style="fill:#262626;" transform="translate(158.358203 379.094531)scale(0.25 -0.25)">
       <use xlink:href="#Arial-BoldMT-53"/>
      </g>
     </g>
    </g>
    <g id="xtick_8">
     <g id="line2d_15">
      <path clip-path="url(#p4b67ef0f74)" d="M 190.060937 351.7 
L 190.060937 10.8 
" style="fill:none;stroke:#cccccc;stroke-linecap:round;stroke-opacity:0.6;stroke-width:0.8;"/>
     </g>
     <g id="line2d_16">
      <g>
       <use style="fill:#262626;stroke:#262626;stroke-width:0.8;" x="190.060937" xlink:href="#mb6237b687d" y="351.7"/>
      </g>
     </g>
    </g>
    <g id="xtick_9">
     <g id="line2d_17">
      <path clip-path="url(#p4b67ef0f74)" d="M 214.8125 351.7 
L 214.8125 10.8 
" style="fill:none;stroke:#cccccc;stroke-linecap:round;stroke-opacity:0.6;stroke-width:0.8;"/>
     </g>
     <g id="line2d_18">
      <g>
       <use style="fill:#262626;stroke:#262626;stroke-width:0.8;" x="214.8125" xlink:href="#mb6237b687d" y="351.7"/>
      </g>
     </g>
     <g id="text_5">
      <!-- 6 -->
      <defs>
       <path d="M 50.734375 54.046875 
L 37.453125 52.59375 
Q 36.96875 56.6875 34.90625 58.640625 
Q 32.859375 60.59375 29.59375 60.59375 
Q 25.25 60.59375 22.234375 56.6875 
Q 19.234375 52.78125 18.453125 40.4375 
Q 23.578125 46.484375 31.203125 46.484375 
Q 39.796875 46.484375 45.921875 39.9375 
Q 52.046875 33.40625 52.046875 23.046875 
Q 52.046875 12.0625 45.59375 5.421875 
Q 39.15625 -1.21875 29.046875 -1.21875 
Q 18.21875 -1.21875 11.234375 7.203125 
Q 4.25 15.625 4.25 34.8125 
Q 4.25 54.5 11.515625 63.1875 
Q 18.796875 71.875 30.421875 71.875 
Q 38.578125 71.875 43.921875 67.3125 
Q 49.265625 62.75 50.734375 54.046875 
z
M 19.625 24.125 
Q 19.625 17.4375 22.703125 13.796875 
Q 25.78125 10.15625 29.734375 10.15625 
Q 33.546875 10.15625 36.078125 13.125 
Q 38.625 16.109375 38.625 22.90625 
Q 38.625 29.890625 35.890625 33.125 
Q 33.15625 36.375 29.046875 36.375 
Q 25.09375 36.375 22.359375 33.265625 
Q 19.625 30.171875 19.625 24.125 
z
" id="Arial-BoldMT-54"/>
      </defs>
      <g style="fill:#262626;" transform="translate(206.471094 382.673438)scale(0.3 -0.3)">
       <use xlink:href="#Arial-BoldMT-54"/>
      </g>
     </g>
    </g>
    <g id="xtick_10">
     <g id="line2d_19">
      <path clip-path="url(#p4b67ef0f74)" d="M 239.564063 351.7 
L 239.564063 10.8 
" style="fill:none;stroke:#cccccc;stroke-linecap:round;stroke-opacity:0.6;stroke-width:0.8;"/>
     </g>
     <g id="line2d_20">
      <g>
       <use style="fill:#262626;stroke:#262626;stroke-width:0.8;" x="239.564063" xlink:href="#mb6237b687d" y="351.7"/>
      </g>
     </g>
    </g>
    <g id="xtick_11">
     <g id="line2d_21">
      <path clip-path="url(#p4b67ef0f74)" d="M 264.315625 351.7 
L 264.315625 10.8 
" style="fill:none;stroke:#cccccc;stroke-linecap:round;stroke-opacity:0.6;stroke-width:0.8;"/>
     </g>
     <g id="line2d_22">
      <g>
       <use style="fill:#262626;stroke:#262626;stroke-width:0.8;" x="264.315625" xlink:href="#mb6237b687d" y="351.7"/>
      </g>
     </g>
     <g id="text_6">
      <!-- 7 -->
      <defs>
       <path d="M 4.25 57.859375 
L 4.25 70.609375 
L 51.171875 70.609375 
L 51.171875 60.640625 
Q 45.359375 54.9375 39.34375 44.234375 
Q 33.34375 33.546875 30.1875 21.5 
Q 27.046875 9.46875 27.09375 0 
L 13.875 0 
Q 14.203125 14.84375 19.984375 30.265625 
Q 25.78125 45.703125 35.453125 57.859375 
z
" id="Arial-BoldMT-55"/>
      </defs>
      <g style="fill:#262626;" transform="translate(257.364453 379.094531)scale(0.25 -0.25)">
       <use xlink:href="#Arial-BoldMT-55"/>
      </g>
     </g>
    </g>
    <g id="xtick_12">
     <g id="line2d_23">
      <path clip-path="url(#p4b67ef0f74)" d="M 289.067188 351.7 
L 289.067188 10.8 
" style="fill:none;stroke:#cccccc;stroke-linecap:round;stroke-opacity:0.6;stroke-width:0.8;"/>
     </g>
     <g id="line2d_24">
      <g>
       <use style="fill:#262626;stroke:#262626;stroke-width:0.8;" x="289.067188" xlink:href="#mb6237b687d" y="351.7"/>
      </g>
     </g>
    </g>
    <g id="xtick_13">
     <g id="line2d_25">
      <path clip-path="url(#p4b67ef0f74)" d="M 313.81875 351.7 
L 313.81875 10.8 
" style="fill:none;stroke:#cccccc;stroke-linecap:round;stroke-opacity:0.6;stroke-width:0.8;"/>
     </g>
     <g id="line2d_26">
      <g>
       <use style="fill:#262626;stroke:#262626;stroke-width:0.8;" x="313.81875" xlink:href="#mb6237b687d" y="351.7"/>
      </g>
     </g>
     <g id="text_7">
      <!-- 8 -->
      <defs>
       <path d="M 17.671875 38.8125 
Q 12.203125 40.828125 9.5625 44.53125 
Q 6.9375 48.25 6.9375 53.421875 
Q 6.9375 61.234375 12.546875 66.546875 
Q 18.171875 71.875 27.484375 71.875 
Q 36.859375 71.875 42.578125 66.421875 
Q 48.296875 60.984375 48.296875 53.171875 
Q 48.296875 48.1875 45.671875 44.5 
Q 43.0625 40.828125 37.75 38.8125 
Q 44.34375 36.671875 47.78125 31.875 
Q 51.21875 27.09375 51.21875 20.453125 
Q 51.21875 11.28125 44.71875 5.03125 
Q 38.234375 -1.21875 27.640625 -1.21875 
Q 17.046875 -1.21875 10.546875 5.046875 
Q 4.046875 11.328125 4.046875 20.703125 
Q 4.046875 27.6875 7.59375 32.390625 
Q 11.140625 37.109375 17.671875 38.8125 
z
M 15.921875 53.71875 
Q 15.921875 48.640625 19.1875 45.40625 
Q 22.46875 42.1875 27.6875 42.1875 
Q 32.765625 42.1875 36.015625 45.375 
Q 39.265625 48.578125 39.265625 53.21875 
Q 39.265625 58.0625 35.90625 61.359375 
Q 32.5625 64.65625 27.59375 64.65625 
Q 22.5625 64.65625 19.234375 61.421875 
Q 15.921875 58.203125 15.921875 53.71875 
z
M 13.09375 20.65625 
Q 13.09375 16.890625 14.875 13.375 
Q 16.65625 9.859375 20.171875 7.921875 
Q 23.6875 6 27.734375 6 
Q 34.03125 6 38.125 10.046875 
Q 42.234375 14.109375 42.234375 20.359375 
Q 42.234375 26.703125 38.015625 30.859375 
Q 33.796875 35.015625 27.4375 35.015625 
Q 21.234375 35.015625 17.15625 30.90625 
Q 13.09375 26.8125 13.09375 20.65625 
z
" id="ArialMT-56"/>
      </defs>
      <g style="fill:#262626;" transform="translate(308.257812 375.515625)scale(0.2 -0.2)">
       <use xlink:href="#ArialMT-56"/>
      </g>
     </g>
    </g>
    <g id="xtick_14">
     <g id="line2d_27">
      <path clip-path="url(#p4b67ef0f74)" d="M 338.570312 351.7 
L 338.570312 10.8 
" style="fill:none;stroke:#cccccc;stroke-linecap:round;stroke-opacity:0.6;stroke-width:0.8;"/>
     </g>
     <g id="line2d_28">
      <g>
       <use style="fill:#262626;stroke:#262626;stroke-width:0.8;" x="338.570312" xlink:href="#mb6237b687d" y="351.7"/>
      </g>
     </g>
    </g>
    <g id="xtick_15">
     <g id="line2d_29">
      <path clip-path="url(#p4b67ef0f74)" d="M 363.321875 351.7 
L 363.321875 10.8 
" style="fill:none;stroke:#cccccc;stroke-linecap:round;stroke-opacity:0.6;stroke-width:0.8;"/>
     </g>
     <g id="line2d_30">
      <g>
       <use style="fill:#262626;stroke:#262626;stroke-width:0.8;" x="363.321875" xlink:href="#mb6237b687d" y="351.7"/>
      </g>
     </g>
     <g id="text_8">
      <!-- 9 -->
      <defs>
       <path d="M 5.46875 16.546875 
L 13.921875 17.328125 
Q 14.984375 11.375 18.015625 8.6875 
Q 21.046875 6 25.78125 6 
Q 29.828125 6 32.875 7.859375 
Q 35.9375 9.71875 37.890625 12.8125 
Q 39.84375 15.921875 41.15625 21.1875 
Q 42.484375 26.46875 42.484375 31.9375 
Q 42.484375 32.515625 42.4375 33.6875 
Q 39.796875 29.5 35.234375 26.875 
Q 30.671875 24.265625 25.34375 24.265625 
Q 16.453125 24.265625 10.296875 30.703125 
Q 4.15625 37.15625 4.15625 47.703125 
Q 4.15625 58.59375 10.578125 65.234375 
Q 17 71.875 26.65625 71.875 
Q 33.640625 71.875 39.421875 68.109375 
Q 45.21875 64.359375 48.21875 57.390625 
Q 51.21875 50.4375 51.21875 37.25 
Q 51.21875 23.53125 48.234375 15.40625 
Q 45.265625 7.28125 39.375 3.03125 
Q 33.5 -1.21875 25.59375 -1.21875 
Q 17.1875 -1.21875 11.859375 3.4375 
Q 6.546875 8.109375 5.46875 16.546875 
z
M 41.453125 48.140625 
Q 41.453125 55.71875 37.421875 60.15625 
Q 33.40625 64.59375 27.734375 64.59375 
Q 21.875 64.59375 17.53125 59.8125 
Q 13.1875 55.03125 13.1875 47.40625 
Q 13.1875 40.578125 17.3125 36.296875 
Q 21.4375 32.03125 27.484375 32.03125 
Q 33.59375 32.03125 37.515625 36.296875 
Q 41.453125 40.578125 41.453125 48.140625 
z
" id="ArialMT-57"/>
      </defs>
      <g style="fill:#262626;" transform="translate(359.151172 371.936719)scale(0.15 -0.15)">
       <use xlink:href="#ArialMT-57"/>
      </g>
     </g>
    </g>
    <g id="xtick_16">
     <g id="line2d_31">
      <path clip-path="url(#p4b67ef0f74)" d="M 388.073437 351.7 
L 388.073437 10.8 
" style="fill:none;stroke:#cccccc;stroke-linecap:round;stroke-opacity:0.6;stroke-width:0.8;"/>
     </g>
     <g id="line2d_32">
      <g>
       <use style="fill:#262626;stroke:#262626;stroke-width:0.8;" x="388.073437" xlink:href="#mb6237b687d" y="351.7"/>
      </g>
     </g>
    </g>
    <g id="xtick_17">
     <g id="line2d_33">
      <path clip-path="url(#p4b67ef0f74)" d="M 412.825 351.7 
L 412.825 10.8 
" style="fill:none;stroke:#cccccc;stroke-linecap:round;stroke-opacity:0.6;stroke-width:0.8;"/>
     </g>
     <g id="line2d_34">
      <g>
       <use style="fill:#262626;stroke:#262626;stroke-width:0.8;" x="412.825" xlink:href="#mb6237b687d" y="351.7"/>
      </g>
     </g>
     <g id="text_9">
      <!-- 10 -->
      <defs>
       <path d="M 37.25 0 
L 28.46875 0 
L 28.46875 56 
Q 25.296875 52.984375 20.140625 49.953125 
Q 14.984375 46.921875 10.890625 45.40625 
L 10.890625 53.90625 
Q 18.265625 57.375 23.78125 62.296875 
Q 29.296875 67.234375 31.59375 71.875 
L 37.25 71.875 
z
" id="ArialMT-49"/>
       <path d="M 4.15625 35.296875 
Q 4.15625 48 6.765625 55.734375 
Q 9.375 63.484375 14.515625 67.671875 
Q 19.671875 71.875 27.484375 71.875 
Q 33.25 71.875 37.59375 69.546875 
Q 41.9375 67.234375 44.765625 62.859375 
Q 47.609375 58.5 49.21875 52.21875 
Q 50.828125 45.953125 50.828125 35.296875 
Q 50.828125 22.703125 48.234375 14.96875 
Q 45.65625 7.234375 40.5 3 
Q 35.359375 -1.21875 27.484375 -1.21875 
Q 17.140625 -1.21875 11.234375 6.203125 
Q 4.15625 15.140625 4.15625 35.296875 
z
M 13.1875 35.296875 
Q 13.1875 17.671875 17.3125 11.828125 
Q 21.4375 6 27.484375 6 
Q 33.546875 6 37.671875 11.859375 
Q 41.796875 17.71875 41.796875 35.296875 
Q 41.796875 52.984375 37.671875 58.78125 
Q 33.546875 64.59375 27.390625 64.59375 
Q 21.34375 64.59375 17.71875 59.46875 
Q 13.1875 52.9375 13.1875 35.296875 
z
" id="ArialMT-48"/>
      </defs>
      <g style="fill:#262626;" transform="translate(404.483594 371.936719)scale(0.15 -0.15)">
       <use xlink:href="#ArialMT-49"/>
       <use x="55.615234" xlink:href="#ArialMT-48"/>
      </g>
     </g>
    </g>
    <g id="text_10">
     <!-- ratings -->
     <defs>
      <path d="M 6.5 0 
L 6.5 51.859375 
L 14.40625 51.859375 
L 14.40625 44 
Q 17.4375 49.515625 20 51.265625 
Q 22.5625 53.03125 25.640625 53.03125 
Q 30.078125 53.03125 34.671875 50.203125 
L 31.640625 42.046875 
Q 28.421875 43.953125 25.203125 43.953125 
Q 22.3125 43.953125 20.015625 42.21875 
Q 17.71875 40.484375 16.75 37.40625 
Q 15.28125 32.71875 15.28125 27.15625 
L 15.28125 0 
z
" id="ArialMT-114"/>
      <path d="M 40.4375 6.390625 
Q 35.546875 2.25 31.03125 0.53125 
Q 26.515625 -1.171875 21.34375 -1.171875 
Q 12.796875 -1.171875 8.203125 3 
Q 3.609375 7.171875 3.609375 13.671875 
Q 3.609375 17.484375 5.34375 20.625 
Q 7.078125 23.78125 9.890625 25.6875 
Q 12.703125 27.59375 16.21875 28.5625 
Q 18.796875 29.25 24.03125 29.890625 
Q 34.671875 31.15625 39.703125 32.90625 
Q 39.75 34.71875 39.75 35.203125 
Q 39.75 40.578125 37.25 42.78125 
Q 33.890625 45.75 27.25 45.75 
Q 21.046875 45.75 18.09375 43.578125 
Q 15.140625 41.40625 13.71875 35.890625 
L 5.125 37.0625 
Q 6.296875 42.578125 8.984375 45.96875 
Q 11.671875 49.359375 16.75 51.1875 
Q 21.828125 53.03125 28.515625 53.03125 
Q 35.15625 53.03125 39.296875 51.46875 
Q 43.453125 49.90625 45.40625 47.53125 
Q 47.359375 45.171875 48.140625 41.546875 
Q 48.578125 39.3125 48.578125 33.453125 
L 48.578125 21.734375 
Q 48.578125 9.46875 49.140625 6.21875 
Q 49.703125 2.984375 51.375 0 
L 42.1875 0 
Q 40.828125 2.734375 40.4375 6.390625 
z
M 39.703125 26.03125 
Q 34.90625 24.078125 25.34375 22.703125 
Q 19.921875 21.921875 17.671875 20.9375 
Q 15.4375 19.96875 14.203125 18.09375 
Q 12.984375 16.21875 12.984375 13.921875 
Q 12.984375 10.40625 15.640625 8.0625 
Q 18.3125 5.71875 23.4375 5.71875 
Q 28.515625 5.71875 32.46875 7.9375 
Q 36.421875 10.15625 38.28125 14.015625 
Q 39.703125 17 39.703125 22.796875 
z
" id="ArialMT-97"/>
      <path d="M 25.78125 7.859375 
L 27.046875 0.09375 
Q 23.34375 -0.6875 20.40625 -0.6875 
Q 15.625 -0.6875 12.984375 0.828125 
Q 10.359375 2.34375 9.28125 4.8125 
Q 8.203125 7.28125 8.203125 15.1875 
L 8.203125 45.015625 
L 1.765625 45.015625 
L 1.765625 51.859375 
L 8.203125 51.859375 
L 8.203125 64.703125 
L 16.9375 69.96875 
L 16.9375 51.859375 
L 25.78125 51.859375 
L 25.78125 45.015625 
L 16.9375 45.015625 
L 16.9375 14.703125 
Q 16.9375 10.9375 17.40625 9.859375 
Q 17.875 8.796875 18.921875 8.15625 
Q 19.96875 7.515625 21.921875 7.515625 
Q 23.390625 7.515625 25.78125 7.859375 
z
" id="ArialMT-116"/>
      <path d="M 6.640625 61.46875 
L 6.640625 71.578125 
L 15.4375 71.578125 
L 15.4375 61.46875 
z
M 6.640625 0 
L 6.640625 51.859375 
L 15.4375 51.859375 
L 15.4375 0 
z
" id="ArialMT-105"/>
      <path d="M 6.59375 0 
L 6.59375 51.859375 
L 14.5 51.859375 
L 14.5 44.484375 
Q 20.21875 53.03125 31 53.03125 
Q 35.6875 53.03125 39.625 51.34375 
Q 43.5625 49.65625 45.515625 46.921875 
Q 47.46875 44.1875 48.25 40.4375 
Q 48.734375 37.984375 48.734375 31.890625 
L 48.734375 0 
L 39.9375 0 
L 39.9375 31.546875 
Q 39.9375 36.921875 38.90625 39.578125 
Q 37.890625 42.234375 35.28125 43.8125 
Q 32.671875 45.40625 29.15625 45.40625 
Q 23.53125 45.40625 19.453125 41.84375 
Q 15.375 38.28125 15.375 28.328125 
L 15.375 0 
z
" id="ArialMT-110"/>
      <path d="M 4.984375 -4.296875 
L 13.53125 -5.5625 
Q 14.0625 -9.515625 16.5 -11.328125 
Q 19.78125 -13.765625 25.4375 -13.765625 
Q 31.546875 -13.765625 34.859375 -11.328125 
Q 38.1875 -8.890625 39.359375 -4.5 
Q 40.046875 -1.8125 39.984375 6.78125 
Q 34.234375 0 25.640625 0 
Q 14.9375 0 9.078125 7.71875 
Q 3.21875 15.4375 3.21875 26.21875 
Q 3.21875 33.640625 5.90625 39.90625 
Q 8.59375 46.1875 13.6875 49.609375 
Q 18.796875 53.03125 25.6875 53.03125 
Q 34.859375 53.03125 40.828125 45.609375 
L 40.828125 51.859375 
L 48.921875 51.859375 
L 48.921875 7.03125 
Q 48.921875 -5.078125 46.453125 -10.125 
Q 44 -15.1875 38.640625 -18.109375 
Q 33.296875 -21.046875 25.484375 -21.046875 
Q 16.21875 -21.046875 10.5 -16.875 
Q 4.78125 -12.703125 4.984375 -4.296875 
z
M 12.25 26.859375 
Q 12.25 16.65625 16.296875 11.96875 
Q 20.359375 7.28125 26.46875 7.28125 
Q 32.515625 7.28125 36.609375 11.9375 
Q 40.71875 16.609375 40.71875 26.5625 
Q 40.71875 36.078125 36.5 40.90625 
Q 32.28125 45.75 26.3125 45.75 
Q 20.453125 45.75 16.34375 40.984375 
Q 12.25 36.234375 12.25 26.859375 
z
" id="ArialMT-103"/>
      <path d="M 3.078125 15.484375 
L 11.765625 16.84375 
Q 12.5 11.625 15.84375 8.84375 
Q 19.1875 6.0625 25.203125 6.0625 
Q 31.25 6.0625 34.171875 8.515625 
Q 37.109375 10.984375 37.109375 14.3125 
Q 37.109375 17.28125 34.515625 19 
Q 32.71875 20.171875 25.53125 21.96875 
Q 15.875 24.421875 12.140625 26.203125 
Q 8.40625 27.984375 6.46875 31.125 
Q 4.546875 34.28125 4.546875 38.09375 
Q 4.546875 41.546875 6.125 44.5 
Q 7.71875 47.46875 10.453125 49.421875 
Q 12.5 50.921875 16.03125 51.96875 
Q 19.578125 53.03125 23.640625 53.03125 
Q 29.734375 53.03125 34.34375 51.265625 
Q 38.96875 49.515625 41.15625 46.5 
Q 43.359375 43.5 44.1875 38.484375 
L 35.59375 37.3125 
Q 35.015625 41.3125 32.203125 43.546875 
Q 29.390625 45.796875 24.265625 45.796875 
Q 18.21875 45.796875 15.625 43.796875 
Q 13.03125 41.796875 13.03125 39.109375 
Q 13.03125 37.40625 14.109375 36.03125 
Q 15.1875 34.625 17.484375 33.6875 
Q 18.796875 33.203125 25.25 31.453125 
Q 34.578125 28.953125 38.25 27.359375 
Q 41.9375 25.78125 44.03125 22.75 
Q 46.140625 19.734375 46.140625 15.234375 
Q 46.140625 10.84375 43.578125 6.953125 
Q 41.015625 3.078125 36.171875 0.953125 
Q 31.34375 -1.171875 25.25 -1.171875 
Q 15.140625 -1.171875 9.84375 3.03125 
Q 4.546875 7.234375 3.078125 15.484375 
z
" id="ArialMT-115"/>
     </defs>
     <g style="fill:#262626;" transform="translate(169.79375 414.067188)scale(0.3 -0.3)">
      <use xlink:href="#ArialMT-114"/>
      <use x="33.300781" xlink:href="#ArialMT-97"/>
      <use x="88.916016" xlink:href="#ArialMT-116"/>
      <use x="116.699219" xlink:href="#ArialMT-105"/>
      <use x="138.916016" xlink:href="#ArialMT-110"/>
      <use x="194.53125" xlink:href="#ArialMT-103"/>
      <use x="250.146484" xlink:href="#ArialMT-115"/>
     </g>
    </g>
   </g>
   <g id="matplotlib.axis_2"/>
   <g id="PolyCollection_1">
    <defs>
     <path d="M 66.303125 -250.87249 
L 66.303125 -250.62751 
L 69.303314 -250.642139 
L 72.303504 -250.676353 
L 75.303693 -250.711008 
L 78.303883 -250.733992 
L 81.304072 -250.744904 
L 84.304261 -250.748737 
L 87.304451 -250.749696 
L 90.30464 -250.749339 
L 93.30483 -250.745209 
L 96.305019 -250.721597 
L 99.305208 -250.619327 
L 102.305398 -250.28383 
L 105.305587 -249.460471 
L 108.305777 -247.984032 
L 111.305966 -246.149591 
L 114.306155 -244.816434 
L 117.306345 -244.811132 
L 120.306534 -246.111455 
L 123.306723 -247.796716 
L 126.306913 -248.748332 
L 129.307102 -248.184552 
L 132.307292 -245.82084 
L 135.307481 -242.216588 
L 138.30767 -239.054577 
L 141.30786 -238.273927 
L 144.308049 -240.325212 
L 147.308239 -243.464173 
L 150.308428 -244.673526 
L 153.308617 -240.691624 
L 156.308807 -228.946745 
L 159.308996 -210.193323 
L 162.309186 -191.463029 
L 165.309375 -183.424404 
L 168.309564 -191.371162 
L 171.309754 -209.674135 
L 174.309943 -226.704755 
L 177.310133 -233.186184 
L 180.310322 -225.190993 
L 183.310511 -204.249917 
L 186.310701 -179.12126 
L 189.31089 -164.19169 
L 192.31108 -169.431298 
L 195.311269 -190.930913 
L 198.311458 -214.006288 
L 201.311648 -223.996013 
L 204.311837 -212.133643 
L 207.312027 -177.229482 
L 210.312216 -130.369256 
L 213.312405 -95.796644 
L 216.312595 -95.795455 
L 219.312784 -130.360699 
L 222.312973 -177.18745 
L 225.313163 -211.973846 
L 228.313352 -223.524956 
L 231.313542 -212.929562 
L 234.313731 -189.022579 
L 237.31392 -166.809237 
L 240.31411 -161.402782 
L 243.314299 -176.852542 
L 246.314489 -202.983334 
L 249.314678 -225.319524 
L 252.314867 -235.61625 
L 255.315057 -233.229327 
L 258.315246 -222.137763 
L 261.315436 -209.65011 
L 264.315625 -204.186145 
L 267.315814 -209.746725 
L 270.316004 -222.683783 
L 273.316193 -235.587188 
L 276.316383 -243.509584 
L 279.316572 -245.808947 
L 282.316761 -244.224246 
L 285.316951 -241.219566 
L 288.31714 -239.313198 
L 291.31733 -240.026804 
L 294.317519 -242.935276 
L 297.317708 -246.280183 
L 300.317898 -248.577739 
L 303.318087 -249.413466 
L 306.318277 -249.112252 
L 309.318466 -248.276781 
L 312.318655 -247.60005 
L 315.318845 -247.604835 
L 318.319034 -248.311197 
L 321.319223 -249.281294 
L 324.319413 -250.056128 
L 327.319602 -250.472209 
L 330.319792 -250.610522 
L 333.319981 -250.610485 
L 336.32017 -250.576401 
L 339.32036 -250.567281 
L 342.320549 -250.598623 
L 345.320739 -250.649717 
L 348.320928 -250.686766 
L 351.321117 -250.683506 
L 354.321307 -250.627506 
L 357.321496 -250.52778 
L 360.321686 -250.426187 
L 363.321875 -250.382498 
L 363.321875 -251.117502 
L 363.321875 -251.117502 
L 360.321686 -251.073813 
L 357.321496 -250.97222 
L 354.321307 -250.872494 
L 351.321117 -250.816494 
L 348.320928 -250.813234 
L 345.320739 -250.850283 
L 342.320549 -250.901377 
L 339.32036 -250.932719 
L 336.32017 -250.923599 
L 333.319981 -250.889515 
L 330.319792 -250.889478 
L 327.319602 -251.027791 
L 324.319413 -251.443872 
L 321.319223 -252.218706 
L 318.319034 -253.188803 
L 315.318845 -253.895165 
L 312.318655 -253.89995 
L 309.318466 -253.223219 
L 306.318277 -252.387748 
L 303.318087 -252.086534 
L 300.317898 -252.922261 
L 297.317708 -255.219817 
L 294.317519 -258.564724 
L 291.31733 -261.473196 
L 288.31714 -262.186802 
L 285.316951 -260.280434 
L 282.316761 -257.275754 
L 279.316572 -255.691053 
L 276.316383 -257.990416 
L 273.316193 -265.912812 
L 270.316004 -278.816217 
L 267.315814 -291.753275 
L 264.315625 -297.313855 
L 261.315436 -291.84989 
L 258.315246 -279.362237 
L 255.315057 -268.270673 
L 252.314867 -265.88375 
L 249.314678 -276.180476 
L 246.314489 -298.516666 
L 243.314299 -324.647458 
L 240.31411 -340.097218 
L 237.31392 -334.690763 
L 234.313731 -312.477421 
L 231.313542 -288.570438 
L 228.313352 -277.975044 
L 225.313163 -289.526154 
L 222.312973 -324.31255 
L 219.312784 -371.139301 
L 216.312595 -405.704545 
L 213.312405 -405.703356 
L 210.312216 -371.130744 
L 207.312027 -324.270518 
L 204.311837 -289.366357 
L 201.311648 -277.503987 
L 198.311458 -287.493712 
L 195.311269 -310.569087 
L 192.31108 -332.068702 
L 189.31089 -337.30831 
L 186.310701 -322.37874 
L 183.310511 -297.250083 
L 180.310322 -276.309007 
L 177.310133 -268.313816 
L 174.309943 -274.795245 
L 171.309754 -291.825865 
L 168.309564 -310.128838 
L 165.309375 -318.075596 
L 162.309186 -310.036971 
L 159.308996 -291.306677 
L 156.308807 -272.553255 
L 153.308617 -260.808376 
L 150.308428 -256.826474 
L 147.308239 -258.035827 
L 144.308049 -261.174788 
L 141.30786 -263.226073 
L 138.30767 -262.445423 
L 135.307481 -259.283412 
L 132.307292 -255.67916 
L 129.307102 -253.315448 
L 126.306913 -252.751668 
L 123.306723 -253.703284 
L 120.306534 -255.388545 
L 117.306345 -256.688868 
L 114.306155 -256.683566 
L 111.305966 -255.350409 
L 108.305777 -253.515968 
L 105.305587 -252.039529 
L 102.305398 -251.21617 
L 99.305208 -250.880673 
L 96.305019 -250.778403 
L 93.30483 -250.754791 
L 90.30464 -250.750661 
L 87.304451 -250.750304 
L 84.304261 -250.751263 
L 81.304072 -250.755096 
L 78.303883 -250.766008 
L 75.303693 -250.788992 
L 72.303504 -250.823647 
L 69.303314 -250.857861 
L 66.303125 -250.87249 
z
" id="m961b1e2411" style="stroke:#d95f02;stroke-opacity:0.95;stroke-width:2;"/>
    </defs>
    <g clip-path="url(#p4b67ef0f74)">
     <use style="fill:#ffffff;fill-opacity:0.95;stroke:#d95f02;stroke-opacity:0.95;stroke-width:2;" x="0" xlink:href="#m961b1e2411" y="432"/>
    </g>
   </g>
   <g id="PolyCollection_2">
    <defs>
     <path d="M 66.303125 -250.986052 
L 66.303125 -250.513948 
L 69.303314 -250.540934 
L 72.303504 -250.604489 
L 75.303693 -250.669079 
L 78.303883 -250.709843 
L 81.304072 -250.722467 
L 84.304261 -250.715198 
L 87.304451 -250.700497 
L 90.30464 -250.690301 
L 93.30483 -250.687583 
L 96.305019 -250.669173 
L 99.305208 -250.55317 
L 102.305398 -250.153362 
L 105.305587 -249.193514 
L 108.305777 -247.52427 
L 111.305966 -245.500599 
L 114.306155 -244.052019 
L 117.306345 -244.046073 
L 120.306534 -245.460542 
L 123.306723 -247.340211 
L 126.306913 -248.532186 
L 129.307102 -248.29101 
L 132.307292 -246.442527 
L 135.307481 -243.557478 
L 138.30767 -241.041655 
L 141.30786 -240.417075 
L 144.308049 -242.008657 
L 147.308239 -244.386789 
L 150.308428 -244.988803 
L 153.308617 -240.942346 
L 156.308807 -230.080415 
L 159.308996 -213.321861 
L 162.309186 -196.921069 
L 165.309375 -189.948404 
L 168.309564 -196.811949 
L 171.309754 -212.746715 
L 174.309943 -227.745569 
L 177.310133 -233.5155 
L 180.310322 -226.472692 
L 183.310511 -208.204296 
L 186.310701 -186.589029 
L 189.31089 -173.867894 
L 192.31108 -178.284591 
L 195.311269 -196.505117 
L 198.311458 -215.923017 
L 201.311648 -223.234655 
L 204.311837 -209.880613 
L 207.312027 -174.789121 
L 210.312216 -129.046484 
L 213.312405 -95.800823 
L 216.312595 -95.795455 
L 219.312784 -129.010317 
L 222.312973 -174.622943 
L 225.313163 -209.283528 
L 228.313352 -221.553218 
L 231.313542 -212.211721 
L 234.313731 -190.084618 
L 237.31392 -169.579194 
L 240.31411 -164.620381 
L 243.314299 -178.913982 
L 246.314489 -203.330757 
L 249.314678 -224.503973 
L 252.314867 -234.297993 
L 255.315057 -231.679556 
L 258.315246 -220.496962 
L 261.315436 -208.080763 
L 264.315625 -202.691774 
L 267.315814 -208.203139 
L 270.316004 -221.141977 
L 273.316193 -234.298036 
L 276.316383 -242.627043 
L 279.316572 -245.269399 
L 282.316761 -243.908634 
L 285.316951 -241.065653 
L 288.31714 -239.251459 
L 291.31733 -239.942905 
L 294.317519 -242.75924 
L 297.317708 -246.034972 
L 300.317898 -248.288528 
L 303.318087 -249.013988 
L 306.318277 -248.476749 
L 309.318466 -247.340229 
L 312.318655 -246.449288 
L 315.318845 -246.455539 
L 318.319034 -247.382347 
L 321.319223 -248.670273 
L 324.319413 -249.709327 
L 327.319602 -250.246657 
L 330.319792 -250.357013 
L 333.319981 -250.236597 
L 336.32017 -250.084074 
L 339.32036 -250.046398 
L 342.320549 -250.163326 
L 345.320739 -250.361903 
L 348.320928 -250.531941 
L 351.321117 -250.604308 
L 354.321307 -250.567605 
L 357.321496 -250.453913 
L 360.321686 -250.330889 
L 363.321875 -250.277748 
L 363.321875 -251.222252 
L 363.321875 -251.222252 
L 360.321686 -251.169111 
L 357.321496 -251.046087 
L 354.321307 -250.932395 
L 351.321117 -250.895692 
L 348.320928 -250.968059 
L 345.320739 -251.138097 
L 342.320549 -251.336674 
L 339.32036 -251.453602 
L 336.32017 -251.415926 
L 333.319981 -251.263403 
L 330.319792 -251.142987 
L 327.319602 -251.253343 
L 324.319413 -251.790673 
L 321.319223 -252.829727 
L 318.319034 -254.117653 
L 315.318845 -255.044461 
L 312.318655 -255.050712 
L 309.318466 -254.159771 
L 306.318277 -253.023251 
L 303.318087 -252.486012 
L 300.317898 -253.211472 
L 297.317708 -255.465028 
L 294.317519 -258.74076 
L 291.31733 -261.557095 
L 288.31714 -262.248541 
L 285.316951 -260.434347 
L 282.316761 -257.591366 
L 279.316572 -256.230601 
L 276.316383 -258.872957 
L 273.316193 -267.201964 
L 270.316004 -280.358023 
L 267.315814 -293.296861 
L 264.315625 -298.808226 
L 261.315436 -293.419237 
L 258.315246 -281.003038 
L 255.315057 -269.820444 
L 252.314867 -267.202007 
L 249.314678 -276.996027 
L 246.314489 -298.169243 
L 243.314299 -322.586018 
L 240.31411 -336.879619 
L 237.31392 -331.920806 
L 234.313731 -311.415382 
L 231.313542 -289.288279 
L 228.313352 -279.946782 
L 225.313163 -292.216472 
L 222.312973 -326.877057 
L 219.312784 -372.489683 
L 216.312595 -405.704545 
L 213.312405 -405.699177 
L 210.312216 -372.453516 
L 207.312027 -326.710879 
L 204.311837 -291.619387 
L 201.311648 -278.265345 
L 198.311458 -285.576983 
L 195.311269 -304.994883 
L 192.31108 -323.215409 
L 189.31089 -327.632106 
L 186.310701 -314.910971 
L 183.310511 -293.295704 
L 180.310322 -275.027308 
L 177.310133 -267.9845 
L 174.309943 -273.754431 
L 171.309754 -288.753285 
L 168.309564 -304.688051 
L 165.309375 -311.551596 
L 162.309186 -304.578931 
L 159.308996 -288.178139 
L 156.308807 -271.419585 
L 153.308617 -260.557654 
L 150.308428 -256.511197 
L 147.308239 -257.113211 
L 144.308049 -259.491343 
L 141.30786 -261.082925 
L 138.30767 -260.458345 
L 135.307481 -257.942522 
L 132.307292 -255.057473 
L 129.307102 -253.20899 
L 126.306913 -252.967814 
L 123.306723 -254.159789 
L 120.306534 -256.039458 
L 117.306345 -257.453927 
L 114.306155 -257.447981 
L 111.305966 -255.999401 
L 108.305777 -253.97573 
L 105.305587 -252.306486 
L 102.305398 -251.346638 
L 99.305208 -250.94683 
L 96.305019 -250.830827 
L 93.30483 -250.812417 
L 90.30464 -250.809699 
L 87.304451 -250.799503 
L 84.304261 -250.784802 
L 81.304072 -250.777533 
L 78.303883 -250.790157 
L 75.303693 -250.830921 
L 72.303504 -250.895511 
L 69.303314 -250.959066 
L 66.303125 -250.986052 
z
" id="m975aa671ee" style="stroke:#1b9e77;stroke-opacity:0.5;stroke-width:2;"/>
    </defs>
    <g clip-path="url(#p4b67ef0f74)">
     <use style="fill:#ffffff;fill-opacity:0.5;stroke:#1b9e77;stroke-opacity:0.5;stroke-width:2;" x="0" xlink:href="#m975aa671ee" y="432"/>
    </g>
   </g>
   <g id="PolyCollection_3">
    <defs>
     <path d="M 66.303125 -250.927581 
L 66.303125 -250.572419 
L 69.303314 -250.593731 
L 72.303504 -250.643511 
L 75.303693 -250.693806 
L 78.303883 -250.727037 
L 81.304072 -250.742733 
L 84.304261 -250.748214 
L 87.304451 -250.749593 
L 90.30464 -250.749259 
L 93.30483 -250.744645 
L 96.305019 -250.717966 
L 99.305208 -250.601446 
L 102.305398 -250.216525 
L 105.305587 -249.266462 
L 108.305777 -247.555244 
L 111.305966 -245.42237 
L 114.306155 -243.869607 
L 117.306345 -243.8653 
L 120.306534 -245.391139 
L 123.306723 -247.400582 
L 126.306913 -248.674371 
L 129.307102 -248.461292 
L 132.307292 -246.572086 
L 135.307481 -243.55489 
L 138.30767 -240.882192 
L 141.30786 -240.220276 
L 144.308049 -241.952455 
L 147.308239 -244.568708 
L 150.308428 -245.414961 
L 153.308617 -241.515 
L 156.308807 -230.413812 
L 159.308996 -212.732529 
L 162.309186 -195.051796 
L 165.309375 -187.456244 
L 168.309564 -194.964604 
L 171.309754 -212.2355 
L 174.309943 -228.251145 
L 177.310133 -234.229479 
L 180.310322 -226.409255 
L 183.310511 -206.174811 
L 186.310701 -181.890079 
L 189.31089 -167.448126 
L 192.31108 -172.515183 
L 195.311269 -193.28557 
L 198.311458 -215.485413 
L 201.311648 -224.833347 
L 204.311837 -212.655257 
L 207.312027 -177.589567 
L 210.312216 -130.54248 
L 213.312405 -95.796224 
L 216.312595 -95.795455 
L 219.312784 -130.536897 
L 222.312973 -177.561918 
L 225.313163 -212.549409 
L 228.313352 -224.519562 
L 231.313542 -214.765086 
L 234.313731 -192.005106 
L 237.31392 -170.753042 
L 240.31411 -165.574448 
L 243.314299 -180.375924 
L 246.314489 -205.378476 
L 249.314678 -226.715271 
L 252.314867 -236.559579 
L 255.315057 -234.357879 
L 258.315246 -223.900938 
L 261.315436 -212.099851 
L 264.315625 -206.930735 
L 267.315814 -212.189928 
L 270.316004 -224.414414 
L 273.316193 -236.592112 
L 276.316383 -244.086187 
L 279.316572 -246.349899 
L 282.316761 -245.042872 
L 285.316951 -242.425824 
L 288.31714 -240.754593 
L 291.31733 -241.381441 
L 294.317519 -243.932175 
L 297.317708 -246.853911 
L 300.317898 -248.834064 
L 303.318087 -249.495361 
L 306.318277 -249.112226 
L 309.318466 -248.234083 
L 312.318655 -247.53475 
L 315.318845 -247.538671 
L 318.319034 -248.262522 
L 321.319223 -249.253063 
L 324.319413 -250.034528 
L 327.319602 -250.432405 
L 330.319792 -250.523103 
L 333.319981 -250.454936 
L 336.32017 -250.361887 
L 339.32036 -250.338503 
L 342.320549 -250.409852 
L 345.320739 -250.528929 
L 348.320928 -250.625668 
L 351.321117 -250.655259 
L 354.321307 -250.606663 
L 357.321496 -250.498717 
L 360.321686 -250.384872 
L 363.321875 -250.335575 
L 363.321875 -251.164425 
L 363.321875 -251.164425 
L 360.321686 -251.115128 
L 357.321496 -251.001283 
L 354.321307 -250.893337 
L 351.321117 -250.844741 
L 348.320928 -250.874332 
L 345.320739 -250.971071 
L 342.320549 -251.090148 
L 339.32036 -251.161497 
L 336.32017 -251.138113 
L 333.319981 -251.045064 
L 330.319792 -250.976897 
L 327.319602 -251.067595 
L 324.319413 -251.465472 
L 321.319223 -252.246937 
L 318.319034 -253.237478 
L 315.318845 -253.961329 
L 312.318655 -253.96525 
L 309.318466 -253.265917 
L 306.318277 -252.387774 
L 303.318087 -252.004639 
L 300.317898 -252.665936 
L 297.317708 -254.646089 
L 294.317519 -257.567825 
L 291.31733 -260.118559 
L 288.31714 -260.745407 
L 285.316951 -259.074176 
L 282.316761 -256.457128 
L 279.316572 -255.150101 
L 276.316383 -257.413813 
L 273.316193 -264.907888 
L 270.316004 -277.085586 
L 267.315814 -289.310072 
L 264.315625 -294.569265 
L 261.315436 -289.400149 
L 258.315246 -277.599062 
L 255.315057 -267.142121 
L 252.314867 -264.940421 
L 249.314678 -274.784729 
L 246.314489 -296.121524 
L 243.314299 -321.124076 
L 240.31411 -335.925552 
L 237.31392 -330.746958 
L 234.313731 -309.494894 
L 231.313542 -286.734914 
L 228.313352 -276.980438 
L 225.313163 -288.950591 
L 222.312973 -323.938082 
L 219.312784 -370.963103 
L 216.312595 -405.704545 
L 213.312405 -405.703776 
L 210.312216 -370.95752 
L 207.312027 -323.910433 
L 204.311837 -288.844743 
L 201.311648 -276.666653 
L 198.311458 -286.014587 
L 195.311269 -308.21443 
L 192.31108 -328.984817 
L 189.31089 -334.051874 
L 186.310701 -319.609921 
L 183.310511 -295.325189 
L 180.310322 -275.090745 
L 177.310133 -267.270521 
L 174.309943 -273.248855 
L 171.309754 -289.2645 
L 168.309564 -306.535396 
L 165.309375 -314.043756 
L 162.309186 -306.448204 
L 159.308996 -288.767471 
L 156.308807 -271.086188 
L 153.308617 -259.985 
L 150.308428 -256.085039 
L 147.308239 -256.931292 
L 144.308049 -259.547545 
L 141.30786 -261.279724 
L 138.30767 -260.617808 
L 135.307481 -257.94511 
L 132.307292 -254.927914 
L 129.307102 -253.038708 
L 126.306913 -252.825629 
L 123.306723 -254.099418 
L 120.306534 -256.108861 
L 117.306345 -257.6347 
L 114.306155 -257.630393 
L 111.305966 -256.07763 
L 108.305777 -253.944756 
L 105.305587 -252.233538 
L 102.305398 -251.283475 
L 99.305208 -250.898554 
L 96.305019 -250.782034 
L 93.30483 -250.755355 
L 90.30464 -250.750741 
L 87.304451 -250.750407 
L 84.304261 -250.751786 
L 81.304072 -250.757267 
L 78.303883 -250.772963 
L 75.303693 -250.806194 
L 72.303504 -250.856489 
L 69.303314 -250.906269 
L 66.303125 -250.927581 
z
" id="m00738f80ea" style="stroke:#7570b3;stroke-opacity:0.6;stroke-width:2;"/>
    </defs>
    <g clip-path="url(#p4b67ef0f74)">
     <use style="fill:#ffffff;fill-opacity:0.6;stroke:#7570b3;stroke-opacity:0.6;stroke-width:2;" x="0" xlink:href="#m00738f80ea" y="432"/>
    </g>
   </g>
   <g id="PolyCollection_4">
    <defs>
     <path d="M 66.303125 -250.819656 
L 66.303125 -250.680344 
L 69.303314 -250.689456 
L 72.303504 -250.709719 
L 75.303693 -250.726422 
L 78.303883 -250.72674 
L 81.304072 -250.701366 
L 84.304261 -250.64776 
L 87.304451 -250.582567 
L 90.30464 -250.542798 
L 93.30483 -250.55602 
L 96.305019 -250.606794 
L 99.305208 -250.634917 
L 102.305398 -250.540924 
L 105.305587 -250.178824 
L 108.305777 -249.429095 
L 111.305966 -248.422148 
L 114.306155 -247.657874 
L 117.306345 -247.655532 
L 120.306534 -248.401864 
L 123.306723 -249.309333 
L 126.306913 -249.646988 
L 129.307102 -248.763029 
L 132.307292 -246.160763 
L 135.307481 -242.130749 
L 138.30767 -238.467544 
L 141.30786 -237.557899 
L 144.308049 -240.029147 
L 147.308239 -243.851497 
L 150.308428 -245.797761 
L 153.308617 -242.608504 
L 156.308807 -231.253984 
L 159.308996 -211.587107 
L 162.309186 -190.861257 
L 165.309375 -181.725641 
L 168.309564 -190.798051 
L 171.309754 -211.153409 
L 174.309943 -229.034048 
L 177.310133 -234.055234 
L 180.310322 -220.989344 
L 183.310511 -189.683647 
L 186.310701 -150.994026 
L 189.31089 -127.3851 
L 192.31108 -135.796532 
L 195.311269 -169.784489 
L 198.311458 -206.032675 
L 201.311648 -224.795632 
L 204.311837 -217.499092 
L 207.312027 -183.518596 
L 210.312216 -133.928406 
L 213.312405 -95.795455 
L 216.312595 -95.796626 
L 219.312784 -133.938548 
L 222.312973 -183.578477 
L 225.313163 -217.76501 
L 228.313352 -225.68458 
L 231.313542 -208.269752 
L 234.313731 -174.022501 
L 237.31392 -141.840606 
L 240.31411 -133.875713 
L 243.314299 -156.255291 
L 246.314489 -192.983968 
L 249.314678 -222.974838 
L 252.314867 -236.440822 
L 255.315057 -234.248904 
L 258.315246 -221.519085 
L 261.315436 -206.632988 
L 264.315625 -199.972624 
L 267.315814 -206.694808 
L 270.316004 -221.943272 
L 273.316193 -236.420157 
L 276.316383 -244.80652 
L 279.316572 -247.239211 
L 282.316761 -245.963927 
L 285.316951 -243.3379 
L 288.31714 -241.632598 
L 291.31733 -242.261565 
L 294.317519 -244.793202 
L 297.317708 -247.578182 
L 300.317898 -249.375983 
L 303.318087 -249.985148 
L 306.318277 -249.748351 
L 309.318466 -249.116608 
L 312.318655 -248.597332 
L 315.318845 -248.598889 
L 318.319034 -249.130095 
L 321.319223 -249.82798 
L 324.319413 -250.338761 
L 327.319602 -250.558094 
L 330.319792 -250.553019 
L 333.319981 -250.428873 
L 336.32017 -250.299163 
L 339.32036 -250.2667 
L 342.320549 -250.359226 
L 345.320739 -250.510742 
L 348.320928 -250.633186 
L 351.321117 -250.683756 
L 354.321307 -250.662643 
L 357.321496 -250.590233 
L 360.321686 -250.508023 
L 363.321875 -250.471399 
L 363.321875 -251.028601 
L 363.321875 -251.028601 
L 360.321686 -250.991977 
L 357.321496 -250.909767 
L 354.321307 -250.837357 
L 351.321117 -250.816244 
L 348.320928 -250.866814 
L 345.320739 -250.989258 
L 342.320549 -251.140774 
L 339.32036 -251.2333 
L 336.32017 -251.200837 
L 333.319981 -251.071127 
L 330.319792 -250.946981 
L 327.319602 -250.941906 
L 324.319413 -251.161239 
L 321.319223 -251.67202 
L 318.319034 -252.369905 
L 315.318845 -252.901111 
L 312.318655 -252.902668 
L 309.318466 -252.383392 
L 306.318277 -251.751649 
L 303.318087 -251.514852 
L 300.317898 -252.124017 
L 297.317708 -253.921818 
L 294.317519 -256.706798 
L 291.31733 -259.238435 
L 288.31714 -259.867402 
L 285.316951 -258.1621 
L 282.316761 -255.536073 
L 279.316572 -254.260789 
L 276.316383 -256.69348 
L 273.316193 -265.079843 
L 270.316004 -279.556728 
L 267.315814 -294.805192 
L 264.315625 -301.527376 
L 261.315436 -294.867012 
L 258.315246 -279.980915 
L 255.315057 -267.251096 
L 252.314867 -265.059178 
L 249.314678 -278.525162 
L 246.314489 -308.516032 
L 243.314299 -345.244709 
L 240.31411 -367.624287 
L 237.31392 -359.659394 
L 234.313731 -327.477499 
L 231.313542 -293.230248 
L 228.313352 -275.81542 
L 225.313163 -283.73499 
L 222.312973 -317.921523 
L 219.312784 -367.561452 
L 216.312595 -405.703374 
L 213.312405 -405.704545 
L 210.312216 -367.571594 
L 207.312027 -317.981404 
L 204.311837 -284.000908 
L 201.311648 -276.704368 
L 198.311458 -295.467325 
L 195.311269 -331.715511 
L 192.31108 -365.703468 
L 189.31089 -374.1149 
L 186.310701 -350.505974 
L 183.310511 -311.816353 
L 180.310322 -280.510656 
L 177.310133 -267.444766 
L 174.309943 -272.465952 
L 171.309754 -290.346591 
L 168.309564 -310.701949 
L 165.309375 -319.774359 
L 162.309186 -310.638743 
L 159.308996 -289.912893 
L 156.308807 -270.246016 
L 153.308617 -258.891496 
L 150.308428 -255.702239 
L 147.308239 -257.648503 
L 144.308049 -261.470853 
L 141.30786 -263.942101 
L 138.30767 -263.032456 
L 135.307481 -259.369251 
L 132.307292 -255.339237 
L 129.307102 -252.736971 
L 126.306913 -251.853012 
L 123.306723 -252.190667 
L 120.306534 -253.098136 
L 117.306345 -253.844468 
L 114.306155 -253.842126 
L 111.305966 -253.077852 
L 108.305777 -252.070905 
L 105.305587 -251.321176 
L 102.305398 -250.959076 
L 99.305208 -250.865083 
L 96.305019 -250.893206 
L 93.30483 -250.94398 
L 90.30464 -250.957202 
L 87.304451 -250.917433 
L 84.304261 -250.85224 
L 81.304072 -250.798634 
L 78.303883 -250.77326 
L 75.303693 -250.773578 
L 72.303504 -250.790281 
L 69.303314 -250.810544 
L 66.303125 -250.819656 
z
" id="mc43b40df7b" style="stroke:#98cdec;stroke-opacity:0.7;stroke-width:2;"/>
    </defs>
    <g clip-path="url(#p4b67ef0f74)">
     <use style="fill:#ffffff;fill-opacity:0.7;stroke:#98cdec;stroke-opacity:0.7;stroke-width:2;" x="0" xlink:href="#mc43b40df7b" y="432"/>
    </g>
   </g>
   <g id="patch_3">
    <path d="M 16.8 351.7 
L 16.8 10.8 
" style="fill:none;stroke:#262626;stroke-linecap:square;stroke-linejoin:miter;stroke-width:1.25;"/>
   </g>
   <g id="patch_4">
    <path d="M 412.825 351.7 
L 412.825 10.8 
" style="fill:none;stroke:#262626;stroke-linecap:square;stroke-linejoin:miter;stroke-width:1.25;"/>
   </g>
   <g id="patch_5">
    <path d="M 16.8 351.7 
L 412.825 351.7 
" style="fill:none;stroke:#262626;stroke-linecap:square;stroke-linejoin:miter;stroke-width:1.25;"/>
   </g>
   <g id="patch_6">
    <path d="M 16.8 10.8 
L 412.825 10.8 
" style="fill:none;stroke:#262626;stroke-linecap:square;stroke-linejoin:miter;stroke-width:1.25;"/>
   </g>
   <g id="text_11">
    <!-- $\overline{KS}=0.02$ -->
    <defs>
     <path d="M 16.890625 72.90625 
L 26.8125 72.90625 
L 20.796875 42.1875 
L 59.078125 72.90625 
L 72.21875 72.90625 
L 28.90625 38.09375 
L 60.59375 0 
L 48.578125 0 
L 19.484375 35.5 
L 12.59375 0 
L 2.6875 0 
z
" id="DejaVuSans-Oblique-75"/>
     <path d="M 60.296875 70.515625 
L 58.40625 60.890625 
Q 53.46875 63.53125 48.609375 64.875 
Q 43.75 66.21875 39.203125 66.21875 
Q 30.375 66.21875 25.140625 62.359375 
Q 19.921875 58.5 19.921875 52.09375 
Q 19.921875 48.578125 21.84375 46.703125 
Q 23.78125 44.828125 31.78125 42.671875 
L 37.703125 41.21875 
Q 47.703125 38.625 51.609375 34.640625 
Q 55.515625 30.671875 55.515625 23.484375 
Q 55.515625 12.453125 46.84375 5.515625 
Q 38.1875 -1.421875 24.03125 -1.421875 
Q 18.21875 -1.421875 12.359375 -0.265625 
Q 6.5 0.875 0.59375 3.21875 
L 2.59375 13.375 
Q 8.015625 10.015625 13.453125 8.296875 
Q 18.890625 6.59375 24.3125 6.59375 
Q 33.546875 6.59375 39.109375 10.6875 
Q 44.671875 14.796875 44.671875 21.390625 
Q 44.671875 25.78125 42.453125 28.046875 
Q 40.234375 30.328125 32.90625 32.171875 
L 27 33.6875 
Q 16.890625 36.328125 13.203125 39.765625 
Q 9.515625 43.21875 9.515625 49.421875 
Q 9.515625 60.296875 17.890625 67.25 
Q 26.265625 74.21875 39.703125 74.21875 
Q 44.921875 74.21875 50.046875 73.28125 
Q 55.171875 72.359375 60.296875 70.515625 
z
" id="DejaVuSans-Oblique-83"/>
     <path d="M 10.59375 45.40625 
L 73.1875 45.40625 
L 73.1875 37.203125 
L 10.59375 37.203125 
z
M 10.59375 25.484375 
L 73.1875 25.484375 
L 73.1875 17.1875 
L 10.59375 17.1875 
z
" id="DejaVuSans-61"/>
     <path d="M 31.78125 66.40625 
Q 24.171875 66.40625 20.328125 58.90625 
Q 16.5 51.421875 16.5 36.375 
Q 16.5 21.390625 20.328125 13.890625 
Q 24.171875 6.390625 31.78125 6.390625 
Q 39.453125 6.390625 43.28125 13.890625 
Q 47.125 21.390625 47.125 36.375 
Q 47.125 51.421875 43.28125 58.90625 
Q 39.453125 66.40625 31.78125 66.40625 
z
M 31.78125 74.21875 
Q 44.046875 74.21875 50.515625 64.515625 
Q 56.984375 54.828125 56.984375 36.375 
Q 56.984375 17.96875 50.515625 8.265625 
Q 44.046875 -1.421875 31.78125 -1.421875 
Q 19.53125 -1.421875 13.0625 8.265625 
Q 6.59375 17.96875 6.59375 36.375 
Q 6.59375 54.828125 13.0625 64.515625 
Q 19.53125 74.21875 31.78125 74.21875 
z
" id="DejaVuSans-48"/>
     <path d="M 10.6875 12.40625 
L 21 12.40625 
L 21 0 
L 10.6875 0 
z
" id="DejaVuSans-46"/>
     <path d="M 19.1875 8.296875 
L 53.609375 8.296875 
L 53.609375 0 
L 7.328125 0 
L 7.328125 8.296875 
Q 12.9375 14.109375 22.625 23.890625 
Q 32.328125 33.6875 34.8125 36.53125 
Q 39.546875 41.84375 41.421875 45.53125 
Q 43.3125 49.21875 43.3125 52.78125 
Q 43.3125 58.59375 39.234375 62.25 
Q 35.15625 65.921875 28.609375 65.921875 
Q 23.96875 65.921875 18.8125 64.3125 
Q 13.671875 62.703125 7.8125 59.421875 
L 7.8125 69.390625 
Q 13.765625 71.78125 18.9375 73 
Q 24.125 74.21875 28.421875 74.21875 
Q 39.75 74.21875 46.484375 68.546875 
Q 53.21875 62.890625 53.21875 53.421875 
Q 53.21875 48.921875 51.53125 44.890625 
Q 49.859375 40.875 45.40625 35.40625 
Q 44.1875 33.984375 37.640625 27.21875 
Q 31.109375 20.453125 19.1875 8.296875 
z
" id="DejaVuSans-50"/>
    </defs>
    <g style="fill:#262626;" transform="translate(254.415 317.61)scale(0.3 -0.3)">
     <use transform="translate(0 0.53125)" xlink:href="#DejaVuSans-Oblique-75"/>
     <use transform="translate(65.576172 0.53125)" xlink:href="#DejaVuSans-Oblique-83"/>
     <use transform="translate(148.535156 0.03125)" xlink:href="#DejaVuSans-61"/>
     <use transform="translate(251.806641 0.03125)" xlink:href="#DejaVuSans-48"/>
     <use transform="translate(315.429688 0.03125)" xlink:href="#DejaVuSans-46"/>
     <use transform="translate(347.216797 0.03125)" xlink:href="#DejaVuSans-48"/>
     <use transform="translate(410.839844 0.03125)" xlink:href="#DejaVuSans-50"/>
     <path d="M 0 86.5 
L 0 92.75 
L 129.052734 92.75 
L 129.052734 86.5 
L 0 86.5 
z
"/>
    </g>
   </g>
   <g id="legend_1">
    <g id="patch_7">
     <path d="M 36.3 174.253125 
L 93.3 174.253125 
Q 98.3 174.253125 98.3 169.253125 
L 98.3 30.3 
Q 98.3 25.3 93.3 25.3 
L 36.3 25.3 
Q 31.3 25.3 31.3 30.3 
L 31.3 169.253125 
Q 31.3 174.253125 36.3 174.253125 
z
" style="fill:#4c4c4c;opacity:0.5;stroke:#4c4c4c;stroke-linejoin:miter;"/>
    </g>
    <g id="patch_8">
     <path d="M 34.3 172.253125 
L 91.3 172.253125 
Q 96.3 172.253125 96.3 167.253125 
L 96.3 28.3 
Q 96.3 23.3 91.3 23.3 
L 34.3 23.3 
Q 29.3 23.3 29.3 28.3 
L 29.3 167.253125 
Q 29.3 172.253125 34.3 172.253125 
z
" style="fill:#ffffff;stroke:#cccccc;stroke-linejoin:miter;"/>
    </g>
    <g id="line2d_35">
     <path d="M 39.3 42.444531 
L 64.3 42.444531 
" style="fill:none;stroke:#d95f02;stroke-linecap:round;stroke-width:2;"/>
    </g>
    <g id="line2d_36"/>
    <g id="text_12">
     <!-- $G$ -->
     <defs>
      <path d="M 54.59375 10.890625 
L 58.40625 29.984375 
L 42.1875 29.984375 
L 43.703125 38.09375 
L 69.578125 38.09375 
L 63.28125 6 
Q 56.78125 2.4375 49.109375 0.5 
Q 41.453125 -1.421875 33.6875 -1.421875 
Q 19.96875 -1.421875 12.234375 6.1875 
Q 4.5 13.8125 4.5 27.390625 
Q 4.5 38.671875 9.203125 48.84375 
Q 13.921875 59.03125 22.21875 65.828125 
Q 27.4375 70.0625 33.640625 72.140625 
Q 39.84375 74.21875 47.40625 74.21875 
Q 54.25 74.21875 60.515625 72.484375 
Q 66.796875 70.75 72.515625 67.28125 
L 70.515625 56.78125 
Q 66.109375 61.375 60.203125 63.796875 
Q 54.296875 66.21875 47.609375 66.21875 
Q 39.84375 66.21875 33.9375 63.25 
Q 28.03125 60.296875 23.390625 54.109375 
Q 19.4375 48.828125 17.15625 41.671875 
Q 14.890625 34.515625 14.890625 27.09375 
Q 14.890625 16.890625 20.109375 11.734375 
Q 25.34375 6.59375 35.6875 6.59375 
Q 40.875 6.59375 45.703125 7.6875 
Q 50.53125 8.796875 54.59375 10.890625 
z
" id="DejaVuSans-Oblique-71"/>
     </defs>
     <g style="fill:#262626;" transform="translate(66.8 51.194531)scale(0.25 -0.25)">
      <use transform="translate(0 0.78125)" xlink:href="#DejaVuSans-Oblique-71"/>
     </g>
    </g>
    <g id="line2d_37">
     <path d="M 39.3 77.807813 
L 64.3 77.807813 
" style="fill:none;stroke:#1b9e77;stroke-linecap:round;stroke-width:2;"/>
    </g>
    <g id="line2d_38"/>
    <g id="text_13">
     <!-- $C$ -->
     <defs>
      <path d="M 69.484375 67.28125 
L 67.484375 56.890625 
Q 62.796875 61.625 57.546875 63.921875 
Q 52.296875 66.21875 46.1875 66.21875 
Q 37.84375 66.21875 31.515625 62.203125 
Q 25.203125 58.203125 20.609375 50 
Q 17.671875 44.734375 16.125 38.84375 
Q 14.59375 32.953125 14.59375 27 
Q 14.59375 17.046875 19.75 11.8125 
Q 24.90625 6.59375 34.71875 6.59375 
Q 41.5 6.59375 47.75 8.765625 
Q 54 10.9375 59.90625 15.28125 
L 57.625 3.609375 
Q 51.8125 1.125 45.875 -0.140625 
Q 39.9375 -1.421875 33.984375 -1.421875 
Q 19.96875 -1.421875 12.078125 6.1875 
Q 4.203125 13.8125 4.203125 27.390625 
Q 4.203125 36.078125 7.203125 44.46875 
Q 10.203125 52.875 15.828125 59.8125 
Q 21.78125 67.1875 29.421875 70.703125 
Q 37.0625 74.21875 47.21875 74.21875 
Q 53.46875 74.21875 59.0625 72.484375 
Q 64.65625 70.75 69.484375 67.28125 
z
" id="DejaVuSans-Oblique-67"/>
     </defs>
     <g style="fill:#262626;" transform="translate(66.8 86.557813)scale(0.25 -0.25)">
      <use transform="translate(0 0.78125)" xlink:href="#DejaVuSans-Oblique-67"/>
     </g>
    </g>
    <g id="line2d_39">
     <path d="M 39.3 113.171094 
L 64.3 113.171094 
" style="fill:none;stroke:#7570b3;stroke-linecap:round;stroke-width:2;"/>
    </g>
    <g id="line2d_40"/>
    <g id="text_14">
     <!-- $T$ -->
     <defs>
      <path d="M 5.90625 72.90625 
L 67.578125 72.90625 
L 66.015625 64.59375 
L 39.984375 64.59375 
L 27.484375 0 
L 17.578125 0 
L 30.078125 64.59375 
L 4.296875 64.59375 
z
" id="DejaVuSans-Oblique-84"/>
     </defs>
     <g style="fill:#262626;" transform="translate(66.8 121.921094)scale(0.25 -0.25)">
      <use transform="translate(0 0.09375)" xlink:href="#DejaVuSans-Oblique-84"/>
     </g>
    </g>
    <g id="line2d_41">
     <path d="M 39.3 148.534375 
L 64.3 148.534375 
" style="fill:none;stroke:#98cdec;stroke-linecap:round;stroke-width:2;"/>
    </g>
    <g id="line2d_42"/>
    <g id="text_15">
     <!-- $F$ -->
     <defs>
      <path d="M 16.890625 72.90625 
L 58.6875 72.90625 
L 57.078125 64.59375 
L 25.09375 64.59375 
L 20.90625 43.109375 
L 49.8125 43.109375 
L 48.1875 34.8125 
L 19.28125 34.8125 
L 12.5 0 
L 2.6875 0 
z
" id="DejaVuSans-Oblique-70"/>
     </defs>
     <g style="fill:#262626;" transform="translate(66.8 157.284375)scale(0.25 -0.25)">
      <use transform="translate(0 0.09375)" xlink:href="#DejaVuSans-Oblique-70"/>
     </g>
    </g>
   </g>
  </g>
 </g>
 <defs>
  <clipPath id="p4b67ef0f74">
   <rect height="340.9" width="396.025" x="16.8" y="10.8"/>
  </clipPath>
 </defs>
</svg>
